<svg id="Capa_1" enable-background="new 0 0 512 512" height="512" viewBox="0 0 512 512" width="512" xmlns="http://www.w3.org/2000/svg"><g><path d="m357 240h-24.823c-8.284 0-15-6.716-15-15s6.716-15 15-15h24.823c34.733 0 65.496-24.546 73.148-58.366 1.827-8.08 9.857-13.147 17.94-11.32 8.079 1.828 13.147 9.86 11.319 17.94-5.172 22.859-18.105 43.606-36.419 58.42-18.594 15.042-42.03 23.326-65.988 23.326z" fill="#d03b00"/><path d="m179.823 240h-24.823c-23.958 0-47.394-8.284-65.989-23.326-18.313-14.814-31.247-35.562-36.419-58.42-1.828-8.08 3.24-16.112 11.319-17.94 8.082-1.827 16.112 3.241 17.94 11.32 7.653 33.82 38.416 58.366 73.149 58.366h24.823c8.284 0 15 6.716 15 15s-6.716 15-15 15z" fill="#ff6426"/><path d="m407 0h-2.791l-22.209 20.262v84.738c0 35.841 29.159 65 65 65s65-29.159 65-65c0-57.897-47.103-105-105-105z" fill="#ff6426"/><path d="m437.01 80c3.286 0 6.596-1.075 9.36-3.288 6.469-5.175 7.518-14.614 2.343-21.083l-44.504-55.629h-7.209c-8.284 0-15 6.716-15 15v5.262l43.287 54.109c2.963 3.703 7.322 5.629 11.723 5.629z" fill="#d03b00"/><path d="m107.791 0h-2.791c-57.897 0-105 47.103-105 105 0 35.841 29.159 65 65 65s65-29.159 65-65v-84.738z" fill="#ff8859"/><path d="m115 0h-7.209l-44.504 55.629c-5.176 6.469-4.126 15.909 2.343 21.083 2.766 2.214 6.074 3.288 9.36 3.288 4.4 0 8.761-1.927 11.723-5.63l43.287-54.108v-5.262c0-8.284-6.716-15-15-15z" fill="#ff6426"/><path d="m276 84.927c-8.284 0-15-6.716-15-15v-4.927c0-35.841 29.159-65 65-65 8.284 0 15 6.716 15 15s-6.716 15-15 15c-19.299 0-35 15.701-35 35v4.927c0 8.284-6.716 15-15 15z" fill="#d03b00"/><path d="m236 84.927c-8.284 0-15-6.716-15-15v-4.927c0-19.299-15.701-35-35-35-8.284 0-15-6.716-15-15s6.716-15 15-15c35.841 0 65 29.159 65 65v4.927c0 8.284-6.716 15-15 15z" fill="#ff6426"/><path d="m376 322c-3.839 0-7.678-1.464-10.606-4.394l-15.607-15.606h-42.087c-8.284 0-15-6.716-15-15s6.716-15 15-15h48.3c3.979 0 7.794 1.581 10.606 4.394l20 20c5.858 5.858 5.858 15.355 0 21.213-2.928 2.929-6.767 4.393-10.606 4.393z" fill="#ff6426"/><path d="m136 322c-3.839 0-7.678-1.464-10.606-4.394-5.858-5.858-5.858-15.355 0-21.213l20-20c2.812-2.812 6.627-4.393 10.606-4.393h48.3c8.284 0 15 6.716 15 15s-6.716 15-15 15h-42.087l-15.606 15.606c-2.929 2.93-6.768 4.394-10.607 4.394z" fill="#ff8859"/><path d="m366 402c-3.839 0-7.678-1.464-10.606-4.394l-15.607-15.606h-43.787c-8.284 0-15-6.716-15-15s6.716-15 15-15h50c3.979 0 7.794 1.581 10.606 4.394l20 20c5.858 5.858 5.858 15.355 0 21.213-2.928 2.929-6.767 4.393-10.606 4.393z" fill="#ff6426"/><path d="m146 402c-3.839 0-7.678-1.464-10.606-4.394-5.858-5.858-5.858-15.355 0-21.213l20-20c2.812-2.812 6.627-4.393 10.606-4.393h50c8.284 0 15 6.716 15 15s-6.716 15-15 15h-43.787l-15.606 15.606c-2.929 2.93-6.768 4.394-10.607 4.394z" fill="#ff8859"/><path d="m316.362 270.478v-15h-120.724v15c-7.919 14.138-12.177 30.211-12.177 46.522 0 18.226 5.316 36.155 15.118 51.42v15h108.315l6.527-15c9.802-15.265 15.118-33.194 15.118-51.42 0-16.311-4.258-32.384-12.177-46.522z" fill="#ff6426"/><path d="m313.421 368.42c9.802-15.265 15.118-33.194 15.118-51.42 0-16.311-4.258-32.384-12.177-46.522v-15h-60.362v127.942h50.894z" fill="#d03b00"/><path d="m317.245 269.816c21.137-15.853 33.755-41.09 33.755-67.51 0-4.283-.33-8.6-.981-12.832l-8.714-56.641c-.243-1.585-.74-3.122-1.471-4.55l-27.141-53.063c-.981-1.919-2.365-3.604-4.057-4.94-14.923-11.788-33.616-18.28-52.636-18.28s-37.713 6.492-52.637 18.281c-1.691 1.336-3.075 3.021-4.057 4.94l-27.141 53.063c-.73 1.428-1.228 2.964-1.471 4.55l-8.714 56.641c-.651 4.231-.981 8.548-.981 12.832 0 26.42 12.618 51.657 33.755 67.51l.883.662h120.725z" fill="#ff8859"/><path d="m350.019 189.475-8.714-56.641c-.243-1.585-.74-3.122-1.471-4.55l-27.141-53.063c-.981-1.919-2.365-3.604-4.057-4.94-14.923-11.789-33.616-18.281-52.636-18.281v218.478h60.362l.883-.662c21.137-15.853 33.755-41.09 33.755-67.51 0-4.283-.33-8.6-.981-12.831z" fill="#ff6426"/><path d="m202.977 444.442c2.67 4.674 7.641 7.558 13.023 7.558h80c5.383 0 10.354-2.884 13.023-7.558 13.312-23.297 14.778-51.619 4.397-76.022h-114.841c-10.381 24.403-8.915 52.725 4.398 76.022z" fill="#ff8859"/><path d="m313.421 368.42h-57.421v83.58h40c5.383 0 10.354-2.884 13.023-7.558 13.313-23.297 14.779-51.619 4.398-76.022z" fill="#ff6426"/><circle cx="196" cy="107" fill="#fff5f5" r="45"/><circle cx="196" cy="107" fill="#0a617d" r="15"/><circle cx="316" cy="107" fill="#ebebf0" r="45"/><circle cx="316" cy="107" fill="#08475e" r="15" stroke="#08475e" stroke-miterlimit="10"/><path d="m296 437h-80c-34.921 0-64.345 23.99-72.655 56.356-2.427 9.454 4.797 18.644 14.557 18.644h196.195c9.76 0 16.984-9.191 14.557-18.644-8.309-32.366-37.733-56.356-72.654-56.356z" fill="#ff6426"/><path d="m296 437h-40v75h98.098c9.76 0 16.984-9.191 14.557-18.644-8.31-32.366-37.734-56.356-72.655-56.356z" fill="#d03b00"/></g></svg>